#N canvas 208 162 739 538 10;
#X declare -lib mrpeach;
#X text 182 4 LichtDosenSound;
#X obj 279 93 soundfiler;
#N canvas 0 22 450 300 (subpatch) 0;
#X array array1 81587 float 2;
#X coords 0 1 81587 -1 200 140 1;
#X restore 564 45 graph;
#X msg 276 34 read -resize dosenloop.wav array1;
#X obj 300 301 *~;
#X obj 281 264 phasor~;
#X obj 190 202 sig~;
#X obj 269 242 *~;
#X obj 281 206 sig~;
#X obj 340 220 sig~;
#X obj 319 589 dac~;
#X obj 313 395 tabread4~ array1;
#X obj 365 137 / 44.1;
#X obj 343 184 expr 1000 / $f1;
#X obj 289 480 lop~;
#X obj 73 371 mtof;
#X text 558 291 Combo Detector:;
#X obj 59 213 send links;
#X obj -12 379 s rechts;
#X obj 553 343 r links;
#X obj 652 346 r rechts;
#X obj 563 425 < 0.1;
#X obj 656 426 < 0.1;
#X obj 592 557 &&;
#X obj 630 465 t b f;
#X obj 497 632 metro 100;
#X obj 497 593 tgl 15 0 empty empty empty 17 7 0 10 -262144 -1 -1 1
1;
#X obj 476 536 loadbang;
#X msg 490 564 1;
#X obj 503 668 counter;
#X obj 584 694 spigot;
#X obj 584 751 t b b;
#X obj 527 594 r reset;
#X obj 608 791 s reset;
#X obj 562 775 bng 15 250 50 0 empty empty empty 17 7 0 10 -262144
-1 -1;
#X obj 608 602 tgl 15 0 empty empty empty 17 7 0 10 -262144 -1 -1 0
1;
#X obj 589 728 sel 1;
#X obj 538 737 tgl 15 0 empty empty empty 17 7 0 10 -262144 -1 -1 0
1;
#X floatatom 474 723 5 0 0 0 - - -;
#X obj 492 833 s switchDirection;
#X obj 184 746 f;
#X obj 97 659 loadbang;
#X msg 92 690 1;
#X obj 170 825 s dir;
#X obj 179 136 r dir;
#X obj 222 237 *~;
#X obj 203 170 sig~;
#X obj 219 761 * -1;
#X floatatom 142 787 5 0 0 0 - - -;
#X obj 191 689 bng 15 250 50 0 empty empty empty 17 7 0 10 -262144
-1 -1;
#X obj 174 644 r switchDirection;
#X obj 632 658 > 20;
#X obj 44 24 import mrpeach;
#X obj 47 54 udpreceive 7777;
#X obj 34 88 unpackOSC;
#X obj 83 337 sc 0 1 20 127;
#X obj 158 560 writesf~;
#X msg 151 502 open output.wav;
#X msg 73 510 start;
#X msg 242 533 stop;
#X obj 93 475 bng 15 250 50 0 empty empty empty 17 7 0 10 -262144 -1
-1;
#X obj 329 5 loadbang;
#X obj 11 114 route /licht0 /licht1 /magnet;
#X floatatom 140 242 5 0 0 0 - - -;
#X obj 166 291 / 10000;
#X obj 192 329 sig~;
#X obj 318 544 *~;
#X obj 196 363 lop~ 1;
#X connect 1 0 12 0;
#X connect 1 0 9 0;
#X connect 3 0 1 0;
#X connect 4 0 11 0;
#X connect 5 0 4 0;
#X connect 6 0 45 1;
#X connect 7 0 5 0;
#X connect 8 0 7 1;
#X connect 9 0 4 1;
#X connect 11 0 14 0;
#X connect 12 0 13 0;
#X connect 13 0 8 0;
#X connect 14 0 56 0;
#X connect 14 0 66 0;
#X connect 15 0 14 1;
#X connect 19 0 21 0;
#X connect 20 0 22 0;
#X connect 21 0 23 0;
#X connect 22 0 24 0;
#X connect 23 0 30 0;
#X connect 23 0 35 0;
#X connect 24 0 23 0;
#X connect 24 1 23 1;
#X connect 25 0 29 0;
#X connect 26 0 25 0;
#X connect 27 0 28 0;
#X connect 28 0 26 0;
#X connect 29 0 38 0;
#X connect 29 0 51 0;
#X connect 30 0 36 0;
#X connect 30 0 37 0;
#X connect 31 0 34 0;
#X connect 31 1 33 0;
#X connect 32 0 29 3;
#X connect 34 0 39 0;
#X connect 36 0 31 0;
#X connect 40 0 43 0;
#X connect 40 0 48 0;
#X connect 40 0 47 0;
#X connect 41 0 42 0;
#X connect 42 0 40 0;
#X connect 44 0 46 0;
#X connect 45 0 7 0;
#X connect 46 0 45 0;
#X connect 47 0 40 1;
#X connect 49 0 40 0;
#X connect 50 0 40 0;
#X connect 51 0 30 1;
#X connect 53 0 54 0;
#X connect 54 0 62 0;
#X connect 55 0 15 0;
#X connect 57 0 56 0;
#X connect 58 0 56 0;
#X connect 59 0 56 0;
#X connect 60 0 58 0;
#X connect 61 0 3 0;
#X connect 62 0 17 0;
#X connect 62 0 6 0;
#X connect 62 1 18 0;
#X connect 62 1 55 0;
#X connect 62 2 63 0;
#X connect 63 0 64 0;
#X connect 64 0 65 0;
#X connect 65 0 67 0;
#X connect 66 0 10 0;
#X connect 66 0 10 1;
#X connect 67 0 66 1;
