#N canvas 332 120 627 494 10;
#X declare -lib mrpeach;
#X obj 54 34 import mrpeach;
#X obj 78 73 udpreceive 7777;
#X obj 90 122 unpackOSC;
#X obj 67 148 route /licht0 /licht1 /magnet;
#X obj 81 205 sc 0 1 1 127;
#X obj 187 208 sc 0 1 1 127;
#X obj 271 172 / 3000;
#X obj 280 292 sc 0 1 1 127;
#X obj 296 255 line 0 500;
#X msg 292 219 \$1 10;
#X floatatom 70 268 5 0 0 0 - - -;
#X floatatom 178 267 5 0 0 0 - - -;
#X floatatom 275 339 5 0 0 0 - - -;
#X obj 51 325 ctlout 1 1;
#X obj 160 319 ctlout 2 1;
#X obj 265 372 ctlout 3 1;
#X text 36 295 alle CCs auf channel 1;
#X text 176 348 Dose 2: CC 2;
#X text 52 359 Dose 1: CC 1;
#X text 280 407 Magnet: CC 3;
#X connect 1 0 2 0;
#X connect 2 0 3 0;
#X connect 3 0 4 0;
#X connect 3 1 5 0;
#X connect 3 2 6 0;
#X connect 4 0 10 0;
#X connect 5 0 11 0;
#X connect 6 0 9 0;
#X connect 7 0 12 0;
#X connect 8 0 7 0;
#X connect 9 0 8 0;
#X connect 10 0 13 0;
#X connect 11 0 14 0;
#X connect 12 0 15 0;
